# xmcd CD database file
#
# Track frame offsets:
#	150
#	23045
#	37643
#	57779
#	70545
#	86249
#	101336
#	117974
#	138346
#	151543
#	173096
#	192963
#	208130
#	233221
#	247517
#	280881
#	299677
#
# Disc length: 4181 seconds
#
# Revision: 0
# Processed by: cddbd v1.5.2PL0 Copyright (c) Steve Scherf et al.
# Submitted via: CDex 1.50Beta7
#
DISCID=db105311
DTITLE=Brosnan, Mike - Live
DYEAR=2008
DGENRE=Blues
TTITLE0=Nowhere to run
TTITLE1=Long gone
TTITLE2=Hutt bound trail
TTITLE3=Letter to a friend
TTITLE4=Handyman
TTITLE5=Love so good
TTITLE6=She´s funny that way
TTITLE7=Home to you
TTITLE8=Antidote
TTITLE9=Duagh memories
TTITLE10=Tuatapere
TTITLE11=C&W singer
TTITLE12=Quiet desperation
TTITLE13=Good liquor, bad company
TTITLE14=Night train
TTITLE15=Gonna run away
TTITLE16=Another song for the road
EXTD=YEAR: 2008
EXTT0=
EXTT1=
EXTT2=
EXTT3=
EXTT4=
EXTT5=
EXTT6=
EXTT7=
EXTT8=
EXTT9=
EXTT10=
EXTT11=
EXTT12=
EXTT13=
EXTT14=
EXTT15=
EXTT16=
PLAYORDER=
